<svg xmlns="http://www.w3.org/2000/svg" width="200" height="34" class="logo o-full default lazyautosizes ls-is-cached"><path fill="#fff" d="M180.241 15.322v-4.406h2.763c1.468 0 3.459.125 3.459 2.028 0 2.053-1.02 2.378-2.763 2.378h-3.459Zm0 3.13h1.892l4.18 7.686h4.604l-4.653-8.011c2.388-.2 4.38-1.377 4.38-4.757 0-4.207-2.763-5.533-7.491-5.533h-6.819v18.301h3.907v-7.686ZM200 17c0-10.74-7.988-17-16.922-17-9.008 0-16.996 6.26-16.996 17 0 10.766 7.988 17 16.996 17 8.934.025 16.922-6.234 16.922-17Zm-4.853 0c0 7.836-5.549 13.12-12.044 13.12v-.05c-6.744.05-12.094-5.234-12.094-13.07 0-7.812 5.4-12.994 12.094-12.994 6.495 0 12.044 5.182 12.044 12.994ZM11.05 11.119l5.852 18.167h5.32l-8.27-23.424h-5.61L0 29.31h5.175l5.875-18.19v-.001Zm27.291 2.27c-.39-1.497-1.147-4.286-5.177-4.286-2.443 0-5.862 1.674-5.862 8.623 0 4.413 1.661 8.344 5.862 8.344 2.71 0 4.591-1.598 5.177-4.616h4.934c-1.001 5.326-4.323 9.029-10.282 9.029-6.253 0-10.77-4.362-10.77-12.833 0-8.598 4.762-12.96 10.819-12.96 7.107 0 9.964 5.047 10.233 8.699H38.34h.001Zm13.309 2.738v-6.3h6.193c2.925 0 3.49 1.848 3.49 3.113 0 2.311-1.278 3.187-3.883 3.187h-5.8Zm-4.866 13.159h4.866v-9.194h5.137c3.686 0 3.883 1.24 3.883 4.475 0 2.433.196 3.624.516 4.743h5.48v-.608c-1.056-.389-1.056-1.24-1.056-4.646 0-4.378-1.057-5.083-3.023-5.959 2.36-.803 3.686-2.992 3.686-5.57 0-2.043-1.13-6.665-7.471-6.665H46.784v23.424Zm26.119-11.712c0-6.823 3.856-8.598 6.63-8.598 2.772 0 6.629 1.724 6.629 8.598 0 6.898-3.857 8.597-6.63 8.597-2.773 0-6.63-1.75-6.63-8.597h.001Zm-5.067 0c0 11.514 8.495 12.909 11.721 12.909 3.202 0 11.671-1.395 11.671-12.91 0-11.463-8.444-12.883-11.67-12.883-3.227 0-11.722 1.395-11.722 12.884Zm31.657 4.583h.05l9.714-16.295h5.363V29.31h-4.756V12.58h-.076l-9.967 16.73h-5.084V5.862h4.806v16.295h-.05Zm30.578 7.153h-4.926v-8.86l-8.186-14.588h5.858l4.877 10.17 4.73-10.17h5.588l-7.941 14.71v8.738Zm33.647 0h-4.694V9.742h-.075l-4.543 19.568h-4.893l-4.394-19.568h-.075V29.31h-4.693V5.862h7.34l4.393 18.477h.05l4.344-18.477h7.265V29.31h-.025Z"/></svg>