<svg xmlns="http://www.w3.org/2000/svg" width="66" height="49" fill="none"><g filter="url(#a)"><rect width="46.614" height="30.03" x="9.843" y="5" fill="#fff" rx="5.379"/><rect width="46.838" height="30.255" x="9.731" y="4.888" stroke="#D6DCE5" stroke-width=".224" rx="5.491"/><path fill="#000008" d="M24.92 16.082c.31-.39.522-.912.466-1.445-.455.022-1.01.3-1.332.69-.289.333-.544.877-.478 1.388.511.044 1.022-.255 1.344-.633ZM25.38 16.815c-.742-.044-1.373.421-1.727.421-.355 0-.897-.399-1.484-.388a2.188 2.188 0 0 0-1.861 1.13c-.797 1.375-.21 3.414.565 4.533.377.554.83 1.164 1.428 1.142.565-.022.787-.366 1.474-.366.686 0 .886.366 1.484.355.62-.011 1.008-.555 1.384-1.109.432-.631.61-1.24.62-1.274-.01-.011-1.196-.466-1.207-1.829-.01-1.141.93-1.684.975-1.718-.532-.786-1.362-.875-1.65-.897ZM31.843 15.27c1.613 0 2.736 1.112 2.736 2.731 0 1.625-1.147 2.742-2.777 2.742h-1.786v2.84h-1.29v-8.312h3.117Zm-1.827 4.39h1.48c1.124 0 1.764-.604 1.764-1.653 0-1.048-.64-1.648-1.757-1.648h-1.487v3.301ZM34.916 21.861c0-1.06.812-1.71 2.253-1.791l1.659-.098v-.467c0-.674-.456-1.077-1.216-1.077-.72 0-1.17.345-1.279.887h-1.175c.07-1.095 1.002-1.901 2.5-1.901 1.47 0 2.408.777 2.408 1.993v4.177h-1.192v-.997h-.029c-.351.674-1.118 1.1-1.913 1.1-1.186 0-2.016-.737-2.016-1.826Zm3.912-.547v-.478l-1.492.092c-.744.052-1.164.38-1.164.899 0 .53.438.875 1.106.875.87 0 1.55-.599 1.55-1.388ZM41.192 25.813v-1.008c.092.023.3.023.403.023.576 0 .888-.242 1.078-.864 0-.012.11-.369.11-.374l-2.19-6.067h1.348l1.532 4.932h.023l1.533-4.932h1.313l-2.27 6.378c-.518 1.469-1.117 1.941-2.373 1.941-.104 0-.415-.011-.507-.029Z"/></g><defs><filter id="a" width="64.991" height="48.407" x=".654" y=".294" color-interpolation-filters="sRGB" filterUnits="userSpaceOnUse"><feFlood flood-opacity="0" result="BackgroundImageFix"/><feColorMatrix in="SourceAlpha" result="hardAlpha" values="0 0 0 0 0 0 0 0 0 0 0 0 0 0 0 0 0 0 127 0"/><feOffset dy=".448"/><feGaussianBlur stdDeviation="2.241"/><feColorMatrix values="0 0 0 0 0.717647 0 0 0 0 0.717647 0 0 0 0 0.717647 0 0 0 0.08 0"/><feBlend in2="BackgroundImageFix" result="effect1_dropShadow_20_326"/><feColorMatrix in="SourceAlpha" result="hardAlpha" values="0 0 0 0 0 0 0 0 0 0 0 0 0 0 0 0 0 0 127 0"/><feOffset dy="4.482"/><feGaussianBlur stdDeviation="4.482"/><feColorMatrix values="0 0 0 0 0.717647 0 0 0 0 0.717647 0 0 0 0 0.717647 0 0 0 0.08 0"/><feBlend in2="effect1_dropShadow_20_326" result="effect2_dropShadow_20_326"/><feBlend in="SourceGraphic" in2="effect2_dropShadow_20_326" result="shape"/></filter></defs></svg>