<svg xmlns="http://www.w3.org/2000/svg" class="birdword" viewBox="0 0 405.54 246.55"><path d="M115.17 99.62c.6-.34 1.2-.71 1.8-1 2.21-.72 3.16-3.4 5.72-3.16 2.32-2.62 5.78-3.22 8.46-5.3a3.06 3.06 0 0 1 .87-1.37c1.7-1.28-1.14-2.29-1.14-2.29-.83-1.1-2.08-.09-2.08-.09a14.6 14.6 0 0 1-1.94 1c-.36 1.25-1.67 1.37-2.62 1.91a24.68 24.68 0 0 1-4.83 3.28c-1.2 1.8-3.32 2.14-4.71 3.5a6.7 6.7 0 0 0-2.24 2.5s-3.31 3 1.09 1.38ZM111.07 104.54a2.09 2.09 0 0 1-.24.33.31.31 0 0 1-.16.12 20.37 20.37 0 0 0-5 5.88c-1.49 2.27-3 4.54-5.57 6.15-1.91 0-3 2-4.59 2.74-.48-.12-.59-.66-.83-1a5.92 5.92 0 0 1-.58-3.76 5.42 5.42 0 0 0 2.73-1.4c1-.88 2.06-1.8 3.08-2.76 3.14-2.94 6.21-6.12 9.32-8.87 0 .03 2.39-1.11 1.84 2.57ZM110.41 97.59c-3.57 1.43-7.8 1.43-10.6 4.29-1.31.72-3.58-.54-4.41 1.13.24.42.06 1.08.12 1.55l-1.31-.12.3 2.56c3.16.42 4.82-3.63 7.86-4l.42.42v.89c-.48.3-1.13-.48-1.67 0a16.63 16.63 0 0 1-5.6 3.81c-.48.29-.5 1.25-1 1.33l-.43 3.55c1.77.43 3-1 4.33-2.16a10 10 0 0 1 1-.82c3.16-3.46 7.27-6.14 9.71-9.89-.02.03.87.6 1.28-2.54ZM185 96.94c.3 4.63-1.82 8.2-5 11.67-3.22.84-6.37 3.22-9.71 1.25-2.09-1.13-4.59.12-6.13-2.26-.72-.24-1.73-.06-2-1 .41-1 1.75-1 2.52-1.74 3.81.48 8.64 3.52 12 .12 1.44-.66 3.58-.84 3.75-2.86a4.15 4.15 0 0 1 1.44-3.46c1.17 0 1.33-1.47 1.7-2.5 0 0-.11-3.62 1.27-3.06 0 0 1.26 1.34 0 2.2ZM156.74 78.56c-1.17 1.1-2.44 2.11-3 2.71-4.76 1.67-10.12 2.68-15 .6-.65-1.13 1.23-1.62.09-2.69.42-.42.63-.85 1.29-.61.65 1.79 2.67.91 4 1.15 2 .71 3.64-.71 5.42-.42 1.25-.6 1.91-.6 3.16-1.19a1.32 1.32 0 0 0 .72-.14s4.15-2.66 3.32.59ZM258.32 72.27c-2.2-2-4.05.8-4.05.8A4.44 4.44 0 0 0 252.7 75c-3 1.43-4.29 5.36-7.33 6.56-1.84 1.85-4.11 3-6.13 5.12-4 1.19-9.06 1.55-13 3.58-3 1.19-6.32 1.73-9.29 2.86-3.64 2.44-7.87 3.28-11.44 5.72-.6.54-2 .83-1.61 2 .53.84 1.61.18 2.32.6s2.33.3 2.26 1.55c-.77.72-2.44.66-2.26 2.15a27.31 27.31 0 0 0 4.53 2.26 32 32 0 0 0 6.3 3.44c3.73 1.58 7.66 2.73 11.34 4.42 2.92.89 6.26 1.07 8.82 2.62 3.46 1 7.21 2.08 10.9 2.86 2.27.89.13 2.86.54 4.53-.06 1.13-1 2-.54 3.16-1.78 2.74-1.9 6-1.6 9.17-.89.36-.48 1.31-.24 1.85a17.8 17.8 0 0 0-1.44 5.6c-.41-.12-.65.3-.71.54-.3 2.74-.59 4.88-.89 7.57a6.55 6.55 0 0 0 5.42-.42c-1-2 .59-3.75.47-5.84.65-1.25.18-2.44.54-3.87 1.61-5 1.66-10.31 2.14-15.61-.24-.84-.89-1.49.3-2.14l.59.6c-.47 1.85.3 3.87-.18 5.6 1.2 3.63.13 7.69.72 11.56 2.5 1.37-.78 4.05 1.73 5.42a2.86 2.86 0 0 0 .93 2.31c1 .23 2.33-.24 3.78-1.72.36-3.52-1.67-6-1.73-9.29-.78-2.27-.36-4.41-1.67-6.44-.06-2-.83-3.93-1-5.9-1-.84-.54-2.56-.42-3.69-.36-2.09-.23-5.06-2.86-6-4.47-.48-8.7-2.26-13.05-3.39-2.62-.54-5.18-2-8-2.44a25.85 25.85 0 0 0-3-1 33.62 33.62 0 0 1-7.24-2.55c-.61-.17-1.21-.36-1.81-.56a3.57 3.57 0 0 0-.41-.23c-1-.52-6.48-2.28-7.34-2.88-1-1.56.78-1.57.78-1.57.35-.09 5.11 2.26 5.45 2.26.8.12 1.11.63 1.85.78a23.1 23.1 0 0 0 2.8.78c3.19 1.91 6.75 2.92 10.3 4 1.11.33 2.2.66 3.29 1 .24.42 1.31.36 1.85.71 2.2 1 4.83.89 6.85 2.26 1.43-.72 2.21 1 3.46 1 2.09 1.07 5 .06 6.73 2 1.73 2.5 1.25 6 2.56 8.7-1.13 2.21 2.14 3.1 1 5.3.54 1.19 1.13 2.92 2.56 3.28a2.31 2.31 0 0 0 2.26-.83c.18-1.49-.78-2.5-1.13-3.75.36-2.38-1.67-4.41-1.55-6.74-.24-1.55-.48-3.57-2-4.71-.78-1.55-2.45-3.18-1.43-5.09-.54-.53-1.49.12-2.14-.29-1.73-1.2-3.87-1.25-5.9-1.61a22.8 22.8 0 0 0-5.37-2.28 35 35 0 0 0-5.89-1.12v-.3c-1.85.78-3.63-1.61-5.6-2-1.2-1.07-3.57-.06-4.89-1.43a5.44 5.44 0 0 1-3.63-.88c-1.43-.18-3.76.17-4.47-1.5a14.61 14.61 0 0 0-4.46-.8c-.34-.15-.71-.31-1.1-.52a2.41 2.41 0 0 0-1-.39c-1 0-2.32-.53-2.06-1 .14-.21 2.64-.82 2.87-1a2.6 2.6 0 0 0 1-.35h.08c4.81-1.84 9.79-3.2 14.36-5.46 3.51.18 6.61-1.37 10.19-1.43 3.81-2.74 6.73-7.21 11-9.12 1.79-1.43 3.1-5.42 5.84-4.17 1.07-.3 1.67.42 2.74.18.76-1 2-2 1.72-3.2.25-1.1-1.74-3.12-1.74-3.12Zm-5.24-53.81a1.65 1.65 0 0 1 .43 1c-.09 4.08.1 8.91 1.56 12.73 1.31 5.36 2.44 10.55 3.57 16 .48 2.44-3.75 2.56-2.56 5 .35 2.26-1 3-2.27 4.59a19 19 0 0 1 1.92 1.58 2.73 2.73 0 0 0 3.49 1.28s2.37-.67 2.1-2.72c.19-1.77.24-3.78 1.36-4.91-.53-1.49.48-3-.71-4.29.36-3.22-1.13-6-2-8.82.18-2-.89-3.64-.72-5.48a108.6 108.6 0 0 1-2.86-14.83l.6-.89c1.55-.42 2 1.73 3.39 2 .72 2.44 3.22 3.45 4.29 5.6a87.27 87.27 0 0 1 10.43 11.24c4.23 4 8.35 7.57 11.75 12 1.18 1.19 2.86.06 4.17 1 2-1.07 6.08-.36 5.72-3.87a2.19 2.19 0 0 1 1.73-.72c1.67 1 3.63-.06 5.24-.54a85.53 85.53 0 0 0 12.86-2c.89-.06 1.19-.89 1-1.73a2.1 2.1 0 0 0-1.73-1.13c-4.23 1-8.58 2.68-13 2.44l-.42-.3c.42-1.25 2.26-.41 3.15-1.25a29.4 29.4 0 0 0 9-1.91c2-1.91 4.76 1.55 6-1.85.66-1.49 4.95-1.25 2.86-3.4-1.31-.18-2.62-.53-3.45 1-2.62-.54-4 2.14-6.43 2-.24-.06-.6-.24-.42-.6 3.09-1.79 6.73-2.44 9.71-4.53.12-.6-.18-1-.72-1-4.58 1.07-8.69 3.39-13 5.12-1.25.78-2.39 2.32-4.06 2.32-2.38 1.55-5.3 1.91-7.38 4.11-1.31.3-2.39-.29-3.45.42a10.62 10.62 0 0 1-3.16-3c-4.29-4.71-10.13-8.82-14.6-13.89-4.23-2.92-8.52-6-11.85-9.83l-2.56-2.15a2.71 2.71 0 0 0-2.67 1.08 1.1 1.1 0 0 0-.15.2 1.88 1.88 0 0 1-.36.14h-.77a6.86 6.86 0 0 1-.83-.17 1.82 1.82 0 0 1-.86-.52 5 5 0 0 1-2 .12s-1.83-.73-1.28 1.28a3.43 3.43 0 0 1-.05 2.08Zm36.49 27.65c-.89.18-.59-.89-1.31-1.13-2.74-2.08-5.06-5.24-7.68-7.62-1.31-1-2.21-2.74-3.75-3.58-4.29-3.52-8-8.34-12.16-11.68a17.6 17.6 0 0 0-3.67-4.17 1.26 1.26 0 0 1 .54-1.31c.65 0 1.37.24 1.31 1 3.21 4.67 7.74 6.46 12 12.33.72-.18.66.42.83 1 4.83 4.77 10.19 9.29 15 14.06.21.75-.74.75-1.1 1.1Z" fill="#ffffff"/><path d="M212 32.61c2.12-.53 4.92-2.86 6.53-.37.24.12.42-.12.6-.3.66.18.66.9.84 1.43.36.18.48-.3.72-.42 0-1.43 1.07-2 2-3a35.14 35.14 0 0 1 5.24-2c-.18-.9-.48-1.37-1.43-1.55 0 .29-.36.47-.54.71-2.08.06-2.62 2.62-4.71 2.26l-.18-1.13c1.79-1.13 2.68-3.16 3.28-5-.65-1.13-2.32 0-3.28-.18-1-1.49-2.85-1.67-4.71-1.55-1.79-2-3.28-4.47-6.13-4.71-.89-1-1.73-1.91-1.61-3.28.65-1.55 2 .3 3 .24 5.42 1.85 9.83 6.73 15.84 7.33 1.14 2.09 3.82 1.79 5.9 2.27 1.43 1.61 3.58.77 5.72 1 2.56 1.19 5.9.6 8.58 1.55.71.71.65 2.68 2.14 2.14.54 2.2 2.2 3.63 3 5.6 2.15 1.61 1.19 4.65 1.43 6.85.59 1.43-.24 2.86 1 4a6.63 6.63 0 0 1-3.57 6c-1 2.56-4.23 1.61-6.32 2.44-1.55 1.49-3.34 1.79-4.71 3.46-1.13 2-2.5 4.17-2.14 6.67a11.76 11.76 0 0 1-.5 4.26 14.79 14.79 0 0 0-.93 5.51c-.72 2.09 0 5.3-2.86 6-.47-.3-1.55-.54-1.31-1.43-1.43-.66.23-2.27-1.14-3.1l.6-4.29a17.11 17.11 0 0 0 .92-2.65c1-3.72 1.26-7.73 4.08-10.69-.05-.83-.89-1.13-1.72-1L230.06 60c-1.83 2.05-2.09 4.75-2.57 7.36-.39 2.17-.91 4.28-2.55 5.93-.36 2.86 1.37 5.6.11 8.16-1 .3-2.26 1.25-3.28.24-2.14-4.17-.41-9.29 1.31-13.11a6.26 6.26 0 0 0 .84-1.22c1.52-2.81 1.37-6.61 4.88-8 0-.53 0-1.13-.6-1.31l-2.26 1.31c-.9.48-2.08.12-2.86.84-1.39 2.32-3.18 4.48-3.71 7.12-3.22 4.11-1.95 10.34-3.43 15.22l-1.44 1.55a1.73 1.73 0 0 1-2-.42c-.89-3.16.54-6 .41-9.18.42-2.2.72-4.53 2.33-6.26a3.84 3.84 0 0 1 0-.92c.37-2.44 3.17-3.87 4.39-6.11l-.42-.83c-1-.06-1.07 1-1.54 1.55a19.35 19.35 0 0 0-4.83 5.39c-.63.95-1.22 1.89-1.79 2.77-2.2 2.44-2.56 5.66-3.39 8.7-1.43 2.09.42 5.24-1.61 6.73a3.7 3.7 0 0 1-3 0c-1-1.19-.06-2.74.11-4 .6-2.21.42-5.12.72-7.27a43.28 43.28 0 0 1 5.12-6.88 34.81 34.81 0 0 1 3-2.95v-1.55c-.89-.3-1.72.89-2.33 1.43-.76 1-1.59 2-2.43 3.07-4.52 5.49-9.52 11.11-8.41 19.1-.77 1-2 1-3.15 1.13-1.37-.3-1.49-1.85-1.56-3 1.13-3.34.37-7.57 3.4-10-.24-2.92 3-3.81 4-6.14.8 0 1-.69 1.36-1a.66.66 0 0 1 .79-.09c-.12-1.31.83-2.15 1-3.28-.3-.36-.3-1-1-.71a26.2 26.2 0 0 0-4.9 4.08A32.71 32.71 0 0 0 191 81.86c-.78 2-.65 4.35-2.26 6a3.31 3.31 0 0 1-3.16-.6c-.66-4.47 1.55-8 2.86-11.85.72-1-.3-2.74.83-3.58 1.49-1.49 2.5-3 3.76-4.47 1.31-1.22 3.95-.91 4.31-3-.09-2-3.4-.94-3.4-.94-.55.55-2.39.37-2.39.37a1.76 1.76 0 0 0-1.47 0c-.82.82-3.57 1.33-4.92 1.54a16.72 16.72 0 0 0-1.7 2c-1 1.67-1.75 3.78-1 5.75a43.71 43.71 0 0 0-.42 7.45 26.08 26.08 0 0 1 .73 6.16l.09 2.24 1.65.82a5 5 0 0 0-1.42 2.14c-1 1.44-1.14 3.31-1.78 5a9.71 9.71 0 0 0-2.14 3.39c.06 3-3.64 3-5.6 4.29-3.28-.72-6.2-1-9.41-1.85-1.67-1.61-4-1.49-6-2.26-4-.47-6.79-3.76-10.12-5.9a55.7 55.7 0 0 1-9.2-5.56c-1.08-.68-2.44-.82-3.52-1.46a1 1 0 0 1-.57.23 5.06 5.06 0 0 0-5.72-3 3 3 0 0 0-.92.44c-2.32 2.2-5.42 2.62-8.16 3.87-.66.24-1.91.72-2.38-.29.35-2.5 2.2-4.41 3.09-6.68 6.26-2.62 12.63.48 17.87 3.1 2.33 1.73 4.53 3.7 7.33 4.29 3.7 2.62 7.21 5.54 11.27 7.63 2.38-.06 4.41 1 6.32 1.84 1.79.6 4.23.42 6 1.43 1-.12 2.5.47 3.15-.71 1.5-3 5.49-4.11 5.43-7.87 3.15-4.29-.54-8.88-.19-13.58a4.34 4.34 0 0 0 .59-4.17c.86-2.31 1.11-4.55 1.85-6.76.23-.71 2.23-2.42 1.74-3.41-2.07-1.09-3.11 3.32-4.9 2.73-1.67-.77 1-2-.54-3l-3.92 3.66-.54.51-1.12.3c-2.08 2.2-5.24 2.2-6.85 5.18a10.79 10.79 0 0 0-3.26.91c-1.34 1.18-4.72 1.29-4.72 1.29a5.22 5.22 0 0 0-3.19 1.1 9.53 9.53 0 0 1-3.43.81c-2.5 1.55-5.24.71-8 .71-1.56-.24-.54-2.27-2-2.68a57.2 57.2 0 0 1-2.67-8.07 27.65 27.65 0 0 1-.61-3.78c-2.8-3.63-.83-8.82-4-12.16-1.43-.54-2-2.2-2.32-3.57-1.91-1.19-1.43-3.46-3.09-4.59-1-2.86-3.1-4.83-4.29-7.57l-.89-.3c-2.32 1.25-1.25 4.41-1.73 6.73-1.14 1.19-.18 2.92-.24 4.41-.36 4.77-1.55 9.18-2.33 13.7-1 2.11-.16 5-1.25 7.12a3.74 3.74 0 0 1-1 1.22 2 2 0 0 1-2.45-.71c0-.17.05-.34.07-.51a91 91 0 0 0 1.07-13c1.37-1.61.83-4 1.61-5.84.3-1.85 1.25-4.11.24-5.72-1.73 1.07-2 3.52-2.39 5.54-1.07 3.1-1.25 6.91-3.45 9.71-.48 1.13-.84 2.74-2.27 2.86-2.32-.89.3-3.34.24-5.12 2.39-1.85 1.31-5.25 1.61-7.75.54-3.1 3.34-4.94 4.12-8-1.14-1.19-2.45.42-3.82.3-2.38 4.71-7.38 2.32-10.72 4.83-1.43 2-3.92 2-5.18 2.44-1.06-1-1.06-1.84 0-3.58a4.36 4.36 0 0 0 4-1c3-.48 5.18-2.86 7.74-4.29 2-1.67 4.65-1.85 6.74-3.39.54-.12 1.79.36 2-.72-2.39-2.92 2.33-1.31 2.86-3.28.89-2.74 4-2 5.9-3.16.84-.24 2.15-.65 2.86.12 2.68 1 3.22 3.81 3.7 6.14-.24.66-.48 1.91-1.55 1.61-.72-1.37-1.43-2.8-2.15-4.17-.65.24-1.49-.12-1.84.72-.48 1.67 1.49 1.19 2 2.44.05 2.38 2.45 2.86 4 4L132 43c1.55 3.51 3.52 7 4.7 10.6a57.64 57.64 0 0 1 5.73 16.68c-.42 2.32 1.9 3.81 3.28 5.19a9.47 9.47 0 0 0 7.74-2.33 73.46 73.46 0 0 0 8-2.27c2.56-2.14 5.3-3.22 7.62-5.72.07-1.47.58-2.53.34-4.49-.59-3.36-2.61-.69-3.5-2.54-1.37-1.61 2-1.85.83-3.58-2.2-3.45-6.74-2.62-9.83-4.53-2.38-2-3.1-4.71-4.76-7-1.19-1.19-3-1-4.53-1.31-2.2-.83-3.22-3.63-5.72-3.58-2.8-3.28-6.62-4-9.47-7.15-.72-.36-2.45-.24-2-1.67-2.2-1.9-5.13-3.63-7.33-5.72-1.08-.42-2 .06-2.86-.71-.3-2.38-3.28-1.91-5-2.74-1.9-3-6.26-1.73-7.27-5.3-4.11.06-7.21-2.5-10.91-3.58a8.46 8.46 0 0 1-3.75-2.39 3 3 0 0 1 .93-2.44c2.68 1.61 5.14 2.39 7.82 3.82 1.85.06 3.28 1 4.89 1.43 4.65.54 7.68 4.94 11.86 6.61 2.5-.78 3.46 2 5.43 2.86 1.54.42 2.68 2.44 4.29 3 1.85 1.73 4.35 2.38 6.32 4 1.79 1.91 3.33 5.42 6.43 5 2.38.77 3.09 3.27 5 4.59 2.32-.72 3.93 1.13 5.72 2.15.26 1.09 1.3 1.77 2.24 2.49 1.17.89 2.21 1.83 1.45 3.65 1.19 1.25.65-1.61 2.14-1.43.36.18.3.54.3.89h2.33c1.84 1.25 2.92 3.4 4.29 5.13.83 1.07 1.84-.89 2.56.6 2.33.18 3.22 2.8 5.54 3 2.15-.54 4.41.24 6.32 1 1.61.12 1.55 1.91 2.26 2.86 2-1.25 4.54-1.19 7-1.13a2 2 0 0 1 1.1.86 13.05 13.05 0 0 0 4.93 1 40.47 40.47 0 0 0 4.77 0 21.31 21.31 0 0 1 4.58-.19c3.31-.39 4.32.55 4.63 1.1a4.43 4.43 0 0 1 1 .92c.72-.71.72-2.33 2.14-2.15.06.18.36.24.3.42.36.18.6-.18.84-.42 2.14-.06 3-2.32 5-2.68.9-.3 1.55-1.79 2.56-1.31 2-1.73 4.41-.24 6.74-.71 3.87-1.13 8.22-1 11.32-4 1.07-.42 2.56.24 3.28-1a14.92 14.92 0 0 0 4.83-1.85c2.2-1.13 1.67-3.81 2.14-5.9h.17v-1.77c-1.31-1.73-.3-4.53-2-5.9-2.92.18-2.8-4.17-5.84-3.69-2 .24-4.11-.59-6.14-.3-3.63 2.56-9.29 3.87-10.31 9-.95.65-2.32 1.43-1.6 2.86a1.92 1.92 0 0 1-1.85.89c-1.49-.72-.83-2.68-1-3.87a5.37 5.37 0 0 0 .6-3.16l-.84.12c-1.13 1.19-2.38.36-3.15-.72-2.09 1.31-3.52 3.22-5.72 3.76a12 12 0 0 1-4.71-2.32c-1.13.48-2.39-.84-3.34 0a27.93 27.93 0 0 1-3.28-4.83l.18-.18c-.42-.06-1.25-.54-.89-1.13.18 0 .44-.05.6 0a11.16 11.16 0 0 1-2.74-7.61c-1.61-2.32-1.49-5.3-2.86-7.74-3.34-3.46-4.29-8.17-6-12.4.54-1 1.32-2.38 2.75-2 2.33 1.73 5.3 1.79 7.75 3.28.24.53 1.13 1.61 0 2-1.55-.65-3.76.78-4.89-1.31a1.75 1.75 0 0 0-1.55.71 2.5 2.5 0 0 0 1.55 2c.66 2.44 2.68 4.47 3.28 6.85 1.55.78.47 2.86 2 3.7-.53 1.37.89 2.32.42 3.87 1.43.89 1.2 2.74 2.26 3.88 1.2 3.45 3.1 7.09 6.62 9a6.93 6.93 0 0 0 1.84-.72l-.14-.1a8.36 8.36 0 0 1 2.24-.59Z" fill="#ffffff"/><path d="M207.08 28a3.86 3.86 0 0 0-.45-.32c.06-.36-.11-.83.13-1.13 1.42-2.32 2.62.77 4.47.41a5.92 5.92 0 0 0-3.46-5.3c-.24-1.43-2.38-1.73-2.74-3.28-1.37.06-1.67-2.15-3.1-1.85-.77.42-2 .78-2.14 1.73 1.85 3.54 2.72 7.66 5.14 10.83 0-.03 3.36 1.68 2.15-1.09ZM383.79 215.75s18 26.62 19.57 28.05 2.18 1.46 2.18 1.46-5.07-.14-7.63-.14-6.21.33-6.16.14a5.55 5.55 0 0 0-.71-4.74c-1-1.8-11.11-17.09-11.77-17.76-.67.66-10.66 16-11.71 17.76a5.57 5.57 0 0 0-.72 4.74c.05.19-2.87-.14-5.43-.14s-7.63.14-7.63.14.61-.07 2.18-1.46 19.34-27.64 19.34-27.64-17.04-26.29-19.3-27.52c-1.85-1-1.62-1.47-1.62-1.47s4.51.14 7.07.14 6.11-.33 6.06-.14a5.58 5.58 0 0 0 .72 4.74c1 1.8 11 16.78 11.62 17.43.67-.66 10.33-15.39 11.38-17.2a6.22 6.22 0 0 0 .86-5c0-.19 3.29.14 5.84.14s7-.14 7-.14a15.61 15.61 0 0 0-2.65 1.94c-1.64 1.45-18.49 26.67-18.49 26.67Z" fill="#ffffff"/><path d="M330.88 216.8v16.14c0 2.59-.14 8.91-.95 10.61s-1 1.37-.91 1.68.53.17.53.17c2.08 0 2.56-.24 5.39-.24 2.56 0 3.32.19 5.31.19 0 0 .44.14.54-.16s-.68-.9-1.1-2a27 27 0 0 1-.7-7v-19.35s17.73-27.71 19-27.91a3.91 3.91 0 0 0 2.81-1.63h-7.55c-2.56 0-5.3-.33-5.25-.14a5.48 5.48 0 0 1-.78 4.66c-1 1.8-11.07 17.53-11.73 18.18-.67-.66-11-16.15-12-18a5.58 5.58 0 0 1-.71-4.74c0-.19-3.5.14-6.06.14s-7.63-.14-7.63-.14.6.08 2.18 1.47 19.61 28.07 19.61 28.07ZM286.4 219s14.6 20.7 15.75 22.42a10.92 10.92 0 0 0 9.12 5 33.6 33.6 0 0 0 4.63-.29s-.36 0-1.9-1.46c-3-2.74-17.66-23.73-17.66-23.73 6.25-2.69 13.35-6.93 13-16.67-.45-14-10-17.61-24.73-17.2-1.78.05-5.77.09-8 .08-2.83 0-3.77-.24-5.86-.24 0 0-.45-.13-.53.17s.67.92.67.92c1.23 1.66 1.23 9.52 1.23 12.1 0 5.62.05 31.88.05 35.94 0 2.59-.05 5.8-.86 7.5s-1 1.37-.91 1.68.53.17.53.17c2.09 0 2.84-.24 5.67-.24 2.56 0 2.85.19 4.84.19 0 0 .44.14.53-.16s-.68-.9-1.1-2a28.51 28.51 0 0 1-.7-7.17s.05-38.29.05-42.13c0-2.67 1.33-2.9 4.67-2.93 11.25-.13 16.23 5.75 16.29 13.92.15 9.13-4.79 13.42-14.78 14.13ZM233.78 212.09h13c2.59 0 8.07.13 9.35-.18s1.76-1.13 2.07-1 .17.54.17.54v3.92c0 2.83.16 1.72.16 3.82 0 0 .14.44-.17.52s0-.34-1.68-.91-7.29-.38-9.87-.38h-13v20.39h18.44a24.16 24.16 0 0 0 6.8-.85c1.11-.42 2.08-1.47 2.39-1.38s.17.54.17.54c-.15 2.08-.39 4-.71 6.47l-.17 1.87h-30.87c-2.84 0-3 .24-5.11.24 0 0-.44.13-.53-.17s.17-.09.91-1.68.84-4.93.84-7.52v-39.92c0-2.59 0-5.81-.84-7.52s-1-1.37-.91-1.67.53-.17.53-.17c2.09 0 2.27.24 5.11.24h30.09v7.65s.14.45-.16.53-.91-.68-2-1.1a24.08 24.08 0 0 0-6.77-.85H233.8ZM193.1 193.79v42.19c0 2.58 0 5.78-.82 7.48s-1 1.37-.91 1.68.53.17.53.17c2.08 0 2.5-.24 5.34-.24 2.56 0 3 .19 5 .19 0 0 .45.14.53-.16s-.68-.9-1.1-2a28.58 28.58 0 0 1-.7-7.17v-42.12h8.46c2.58 0 7.15.3 8.39.78s1.7 1.19 2 1.1.17-.54.17-.54v-8h-47.52c0 2.55-.63 6.31-.63 8.3 0 0-.13.44.17.53s.9-.67 2-1.1a43.87 43.87 0 0 1 8.87-.93l10.2-.17M159.48 182.19v18.19l10.99-18.19h-10.99zM155.55 233.12c-5.07 6.31-13.7 8.3-21.3 8.29-13.93 0-23.69-12.47-23.85-25.07-.19-15.77 10-25.36 24.89-25.36 5.51 0 14.94 3.54 18.42 9.25a8.34 8.34 0 0 1 1 2.81h.56s0-.59-.06-1c-.14-2.31-1-5.22-1.3-7.82a22.19 22.19 0 0 1 0-5.49 10 10 0 0 1-1.93-.06c-1.9-.22-8.83-2.43-16.34-2.52-19.78-.26-32.76 10.83-33.19 30.11-.4 17.92 12.79 30.2 32.72 30.2a91 91 0 0 0 18.05-2.14l2-5.17a54.43 54.43 0 0 0 1.72-5.25ZM73.2 219s14.6 20.68 15.8 22.4a10.9 10.9 0 0 0 9.11 5 33.59 33.59 0 0 0 4.63-.29s-.35 0-1.9-1.46c-3-2.74-17.66-23.73-17.66-23.73 6.25-2.69 13.34-6.93 13-16.67-.46-14-10-17.61-24.73-17.2-1.78.05-5.77.09-8 .08-2.83 0-3.78-.24-5.87-.24 0 0-.45-.13-.54.17s.67.92.67.92C59 189.67 59 197.54 59 200.12c0 5.62.05 31.88.05 35.94 0 2.59-.05 5.8-.85 7.5s-1 1.37-.91 1.68.53.17.53.17c2.08 0 2.84-.24 5.67-.24 2.56 0 2.84.19 4.83.19 0 0 .45.14.54-.16s-.68-.9-1.11-2a28.73 28.73 0 0 1-.69-7.17s0-38.29 0-42.13c0-2.67 1.33-2.9 4.67-2.93 11.27-.15 16.27 5.73 16.32 13.9.07 9.13-4.87 13.42-14.85 14.13ZM29.41 186.92s14.53 33.7 21 48.4a63.43 63.43 0 0 0 4.39 8.42c1.36 1.61 1.57 1.57 1.57 1.57s-5.08-.15-7.63-.15-4 .33-4 .15a6.15 6.15 0 0 0-.33-4.88c-.16-.39-1.28-3-1.79-4.27L28.39 203c-.64-1.62-.11-1.62-.88 0 0 0-9.83 22.89-14.25 33.12-.51 1.24-1.63 3.88-1.79 4.27a6.17 6.17 0 0 0-.34 4.88c.05.19-.95-.15-3.5-.15s-7.63.15-7.63.15.2 0 1.56-1.57a63.68 63.68 0 0 0 4.38-8.42c6.49-14.7 21-48.4 21-48.4.78-1.69 1.59-1.82 2.47.04Z" fill="#ffffff"/></svg>
