<svg xmlns="http://www.w3.org/2000/svg" width="66" height="49" fill="none"><g filter="url(#a)"><rect width="46.614" height="30.03" x="9.457" y="5" fill="#fff" rx="5.379"/><rect width="46.838" height="30.255" x="9.345" y="4.888" stroke="#D6DCE5" stroke-width=".224" rx="5.491"/><path fill="#3C4043" d="M31.751 23.614h-1.049v-8.158h2.78c.704 0 1.305.235 1.797.704.502.47.753 1.043.753 1.72 0 .694-.251 1.268-.753 1.732-.487.464-1.087.693-1.797.693h-1.731v3.31Zm0-7.153v2.845h1.753a1.4 1.4 0 0 0 1.037-.42c.279-.28.42-.618.42-1 0-.377-.141-.71-.42-.988-.273-.29-.617-.432-1.037-.432H31.75v-.005ZM38.773 17.848c.776 0 1.387.207 1.835.622.448.415.672.983.672 1.704v3.44h-1v-.775h-.043c-.432.639-1.01.956-1.731.956-.617 0-1.13-.18-1.546-.547a1.744 1.744 0 0 1-.622-1.365c0-.579.218-1.037.655-1.376.437-.344 1.021-.513 1.747-.513.623 0 1.136.114 1.535.344v-.24c0-.366-.142-.672-.431-.929a1.48 1.48 0 0 0-1.016-.382c-.584 0-1.049.246-1.387.743l-.923-.58c.508-.736 1.261-1.102 2.255-1.102ZM37.42 21.9c0 .273.115.502.35.682.229.18.502.273.813.273.442 0 .836-.164 1.18-.491.344-.328.518-.71.518-1.152-.327-.257-.78-.388-1.365-.388-.426 0-.78.104-1.065.306-.289.213-.431.47-.431.77ZM46.98 18.028l-3.494 8.038h-1.081l1.3-2.812-2.305-5.226h1.141l1.66 4.008h.022l1.616-4.008h1.142Z"/><path fill="#4285F4" d="M27.58 19.644c0-.341-.03-.668-.087-.983H23.1v1.802h2.53c-.102.6-.433 1.111-.939 1.452v1.17h1.507c.88-.815 1.384-2.019 1.384-3.44Z"/><path fill="#34A853" d="M24.69 21.915c-.419.283-.959.448-1.59.448-1.22 0-2.256-.822-2.627-1.93h-1.554v1.205a4.678 4.678 0 0 0 4.18 2.576c1.264 0 2.326-.415 3.098-1.13l-1.506-1.169Z"/><path fill="#FABB05" d="M20.327 19.538c0-.311.051-.612.146-.895v-1.206h-1.554a4.653 4.653 0 0 0-.498 2.1c0 .757.18 1.47.498 2.102l1.554-1.206a2.82 2.82 0 0 1-.146-.895Z"/><path fill="#E94235" d="M23.1 16.712c.69 0 1.307.238 1.794.702l1.336-1.334a4.494 4.494 0 0 0-3.13-1.22 4.679 4.679 0 0 0-4.181 2.577l1.554 1.206c.37-1.109 1.406-1.931 2.627-1.931Z"/></g><defs><filter id="a" width="64.991" height="48.407" x=".269" y=".294" color-interpolation-filters="sRGB" filterUnits="userSpaceOnUse"><feFlood flood-opacity="0" result="BackgroundImageFix"/><feColorMatrix in="SourceAlpha" result="hardAlpha" values="0 0 0 0 0 0 0 0 0 0 0 0 0 0 0 0 0 0 127 0"/><feOffset dy=".448"/><feGaussianBlur stdDeviation="2.241"/><feColorMatrix values="0 0 0 0 0.717647 0 0 0 0 0.717647 0 0 0 0 0.717647 0 0 0 0.08 0"/><feBlend in2="BackgroundImageFix" result="effect1_dropShadow_20_328"/><feColorMatrix in="SourceAlpha" result="hardAlpha" values="0 0 0 0 0 0 0 0 0 0 0 0 0 0 0 0 0 0 127 0"/><feOffset dy="4.482"/><feGaussianBlur stdDeviation="4.482"/><feColorMatrix values="0 0 0 0 0.717647 0 0 0 0 0.717647 0 0 0 0 0.717647 0 0 0 0.08 0"/><feBlend in2="effect1_dropShadow_20_328" result="effect2_dropShadow_20_328"/><feBlend in="SourceGraphic" in2="effect2_dropShadow_20_328" result="shape"/></filter></defs></svg>