<svg xmlns="http://www.w3.org/2000/svg" id="Layer_1" data-name="Layer 1" viewBox="0 0 615.1 79.28"><defs fill="#ffffff"><style>.cls-1_logo-dark{fill-rule:evenodd;stroke-width:0}</style></defs><path d="M134.03 33.16h-9.44v-6.62h-9.44v19.81h-9.44V0h9.44v19.87h9.44v-6.62h9.44V6.63h9.44V0h9.44v6.68h-9.44v6.62h-9.44v6.62h-9.44v6.57h9.44v6.62h9.44v6.62h9.44v6.62h-9.44v-6.57h-9.44v-6.62Zm84.91-26.54v13.24h-5.66v2.65h-3.78v5.3h7.55v5.3h1.89v13.24h-9.44V29.13h-3.78v-2.65h-24.55v19.87h-9.44V0h37.76v3.97h3.78v2.65h5.66Zm-9.44 0h-28.32v13.24h28.32V6.62Zm75.47 0v39.73h-9.44V26.48h-28.32v19.87h-9.44V6.62h5.66V3.97h3.78V0h28.32v3.97h3.77v2.65h5.66Zm-37.76 13.24h28.32V6.62h-28.32v13.24Zm84.91 13.3h-9.44v-6.62h-9.44v19.81h-9.44V0h9.44v19.87h9.44v-6.62h9.44V6.63h9.44V0h9.43v6.68h-9.43v6.62h-9.44v6.62h-9.44v6.57h9.44v6.62h9.44v6.62h9.43v6.62h-9.43v-6.57h-9.44v-6.62Zm84.91-26.54v39.73h-9.44V26.48h-28.32v19.87h-9.44V6.62h5.66V3.97h3.78V0h28.32v3.97h3.77v2.65h5.67Zm-37.76 13.24h28.32V6.62h-28.32v13.24ZM435.85 0h47.2v6.62h-18.88v39.73h-9.44V6.62h-18.88V0Zm113.23 6.62v39.73h-9.44V26.48h-28.32v19.87h-9.44V6.62h5.66V3.97h3.78V0h28.32v3.97h3.77v2.65h5.67Zm-37.76 13.24h28.32V6.62h-28.32v13.24ZM615.1 0v39.73h-5.67v2.65h-3.77v3.97h-28.32v-3.97h-3.78v-2.65h-5.66V0h9.44v39.73h28.32V0h9.44ZM594.23 58.78h20.88v2.93h-8.35v17.57h-4.17V61.71h-8.35v-2.93Zm-8.35 0h4.18v20.5h-4.18v-20.5Zm-12.52 14.67h-4.18v-2.93h-4.17v8.76h-4.18v-20.5h4.18v8.79h4.17v-2.93h4.18v-2.93h4.17v-2.93h4.17v2.95h-4.17v2.93h-4.17v2.93h-4.18v2.9h4.18v2.93h4.17v2.93h4.17v2.93h-4.17v-2.9h-4.17v-2.93Zm-50.11-14.67h4.17v17.57h12.53v2.93h-16.7v-20.5Zm-20.88 8.79h12.53v-5.86h-12.53v5.86Zm16.7-5.86v17.57h-4.17v-8.79h-12.53v8.79h-4.18V61.71h2.51v-1.17h1.67v-1.76h12.53v1.76h1.67v1.17h2.5Zm-29.23 8.78H489v2.34h-3.31v6.44h-4.21v-6.44h-3.34v-2.34h-.83v-4.68h-1.67v-1.17h-2.5v-5.86h4.18v6.45h3.34v2.34h.84v4.69h1.67v1.17h2.5v-5.86h.84v-2.34h3.34v-6.45h4.17v5.86h-2.5v1.17h-1.67v4.68Zm-25.05-11.72h4.17v20.5h-4.17v-20.5Zm-8.35 11.72h-.84v2.34h-3.31v6.44h-4.21v-6.44h-3.34v-2.34h-.83v-4.68h-1.67v-1.17h-2.51v-5.86h4.18v6.45h3.34v2.34h.84v4.69h1.67v1.17h2.51v-5.86h.84v-2.34h3.34v-6.45h4.17v5.86h-2.5v1.17h-1.67v4.68Zm-25.05-8.78h-12.53v5.86h12.53v-5.86Zm4.17 0v5.86h-2.5v1.17h-1.67v2.34h3.34v2.34h.84v5.86h-4.17v-7.61h-1.67V70.5h-10.86v8.79h-4.17v-20.5h16.7v1.76h1.67v1.17h2.5Zm-25.05-2.93v17.57H408v1.17h-1.67v1.76H393.8v-1.76h-1.67v-1.17h-2.51V58.78h4.18v17.57h12.53V58.78h4.17Zm-45.93 17.57h16.7v-5.86h-12.53v-1.76h-1.67v-1.17h-2.51V61.7h2.51v-1.17h1.67v-1.76h16.7v2.93h-16.7v5.86h12.53v1.76h1.67v1.17h2.51v5.86h-2.51v1.17h-1.67v1.76h-16.7v-2.93Zm-41.76-17.57h20.88v2.93h-8.35v17.57h-4.17V61.71h-8.35v-2.93Zm-25.05 17.57h16.7v-5.86h-12.53v-1.76h-1.67v-1.17h-2.5V61.7h2.5v-1.17h1.67v-1.76h16.7v2.93h-16.7v5.86h12.53v1.76h1.67v1.17h2.51v5.86h-2.51v1.17h-1.67v1.76h-16.7v-2.93Zm-8.35-17.57h4.18v20.5h-4.18v-20.5Zm-16.7 9.96h-1.67v-1.17h-2.51v-2.91h-4.18v14.62h-4.17v-20.5h4.17v2.93h4.18v2.93h4.18v3.51h3.34v2.34h.83v2.93h4.17V58.77h4.18v20.5h-4.18v-2.93h-4.17v-2.91h-4.17v-4.71Zm-33.41 7.61h12.53V61.71h-12.53v14.64Zm-1.67 0h-2.5V61.71h2.5v-1.17h1.67v-1.76h12.53v1.76h1.67v1.17h2.5v14.64h-2.5v1.17h-1.67v1.76h-12.53v-1.76h-1.67v-1.17Zm-6.68 2.93h-16.7v-1.76h-1.67v-1.17h-2.51V61.71h2.51v-1.17h1.67v-1.76h16.7v2.93h-16.7v14.64h12.53v-5.86h-4.18v-.59h-3.34v-2.34h11.69v11.71Zm-41.75-11.71h12.53v-5.86h-12.53v5.86Zm16.7-5.86v17.57h-4.18v-8.79H189.2v8.79h-4.17V61.71h2.51v-1.17h1.67v-1.76h12.53v1.76h1.67v1.17h2.51Zm-45.93-2.93h20.88v2.93h-8.35v17.57h-4.18V61.71h-8.35v-2.93Zm-16.7 9.96h-1.67v-1.17h-2.51v-2.91h-4.17v14.62h-4.18v-20.5h4.18v2.93h4.17v2.93h4.18v3.51h3.34v2.34h.84v2.93h4.17V58.77h4.17v20.5h-4.17v-2.93h-4.17v-2.91h-4.18v-4.71Zm-33.4-1.17h12.53v-5.86h-12.53v5.86Zm16.7-5.86v17.57h-4.17v-8.79h-12.53v8.79h-4.17V61.71h2.51v-1.17h1.67v-1.76h12.53v1.76h1.67v1.17h2.5ZM0 0h79.28v79.28H0V66.06h13.21V52.84h13.21v13.22h13.21V52.84h13.21v13.22h13.21V52.84H52.84V26.4h13.21V13.18H26.43V26.4h13.21v13.22H0V0Z" class="cls-1_logo-dark" fill="#ffffff"/></svg>