<svg xmlns="http://www.w3.org/2000/svg" width="66" height="49" fill="none"><g filter="url(#a)"><rect width="46.614" height="30.03" x="9.614" y="5" fill="#fff" rx="5.379"/><rect width="46.838" height="30.255" x="9.502" y="4.888" stroke="#D6DCE5" stroke-width=".224" rx="5.491"/><path fill="#FF5F00" d="M36.27 13.848h-6.863v12.334h6.863V13.848Z"/><path fill="#EB001B" d="M29.843 20.015a7.83 7.83 0 0 1 2.995-6.167 7.843 7.843 0 1 0 0 12.334 7.83 7.83 0 0 1-2.995-6.167Z"/><path fill="#F79E1B" d="M45.529 20.015a7.844 7.844 0 0 1-12.69 6.167 7.844 7.844 0 0 0 0-12.334 7.843 7.843 0 0 1 12.69 6.167ZM44.78 24.876v-.253h.102v-.051h-.259v.051h.102v.253h.056Zm.504 0v-.305h-.08l-.09.21-.092-.21h-.08v.305h.056v-.23l.086.198h.058l.086-.199v.23h.056Z"/></g><defs><filter id="a" width="64.991" height="48.407" x=".426" y=".294" color-interpolation-filters="sRGB" filterUnits="userSpaceOnUse"><feFlood flood-opacity="0" result="BackgroundImageFix"/><feColorMatrix in="SourceAlpha" result="hardAlpha" values="0 0 0 0 0 0 0 0 0 0 0 0 0 0 0 0 0 0 127 0"/><feOffset dy=".448"/><feGaussianBlur stdDeviation="2.241"/><feColorMatrix values="0 0 0 0 0.717647 0 0 0 0 0.717647 0 0 0 0 0.717647 0 0 0 0.08 0"/><feBlend in2="BackgroundImageFix" result="effect1_dropShadow_20_322"/><feColorMatrix in="SourceAlpha" result="hardAlpha" values="0 0 0 0 0 0 0 0 0 0 0 0 0 0 0 0 0 0 127 0"/><feOffset dy="4.482"/><feGaussianBlur stdDeviation="4.482"/><feColorMatrix values="0 0 0 0 0.717647 0 0 0 0 0.717647 0 0 0 0 0.717647 0 0 0 0.08 0"/><feBlend in2="effect1_dropShadow_20_322" result="effect2_dropShadow_20_322"/><feBlend in="SourceGraphic" in2="effect2_dropShadow_20_322" result="shape"/></filter></defs></svg>