<svg xmlns="http://www.w3.org/2000/svg" width="66" height="49" fill="none"><g filter="url(#a)"><rect width="46.614" height="30.03" x="9.229" y="5" fill="#fff" rx="5.379"/><rect width="46.838" height="30.255" x="9.116" y="4.888" stroke="#D6DCE5" stroke-width=".224" rx="5.491"/><path fill="#253B80" fill-rule="evenodd" d="M19.426 15.646h-2.688a.373.373 0 0 0-.369.315l-1.087 6.89a.224.224 0 0 0 .222.26h1.283c.184 0 .34-.134.369-.316l.293-1.859a.373.373 0 0 1 .369-.315h.85c1.77 0 2.793-.857 3.06-2.554.12-.743.005-1.326-.343-1.735-.382-.449-1.06-.686-1.96-.686Zm.31 2.517c-.147.964-.884.964-1.596.964h-.406l.284-1.8a.224.224 0 0 1 .222-.19h.186c.485 0 .943 0 1.18.277.14.165.184.41.13.749Zm7.723-.031h-1.287c-.11 0-.204.08-.221.189l-.057.36-.09-.13c-.279-.405-.9-.54-1.52-.54-1.422 0-2.637 1.077-2.873 2.588-.123.753.051 1.474.479 1.977.392.462.953.654 1.621.654 1.146 0 1.782-.737 1.782-.737l-.058.358a.224.224 0 0 0 .22.26h1.16c.184 0 .34-.134.37-.316l.695-4.405a.223.223 0 0 0-.22-.258Zm-1.794 2.504a1.434 1.434 0 0 1-1.452 1.229c-.373 0-.672-.12-.864-.347-.19-.225-.262-.547-.202-.904a1.44 1.44 0 0 1 1.442-1.238c.366 0 .663.12.859.35.196.231.273.554.217.91Zm7.355-2.504h1.293c.182 0 .287.203.184.351l-4.301 6.208c-.07.101-.184.16-.307.16h-1.292a.224.224 0 0 1-.182-.353l1.339-1.89-1.425-4.18a.224.224 0 0 1 .213-.296h1.27c.166 0 .312.108.36.266l.755 2.525 1.784-2.627a.375.375 0 0 1 .31-.164Z" clip-rule="evenodd"/><path fill="#179BD7" fill-rule="evenodd" d="m47.043 22.851 1.103-7.016a.225.225 0 0 1 .22-.19h1.242c.138 0 .243.123.221.259l-1.088 6.89a.373.373 0 0 1-.368.316h-1.11a.224.224 0 0 1-.22-.259Zm-8.447-7.206h-2.688a.373.373 0 0 0-.369.316l-1.087 6.89a.224.224 0 0 0 .221.259h1.38a.261.261 0 0 0 .257-.22l.309-1.954a.373.373 0 0 1 .368-.316h.85c1.771 0 2.793-.856 3.06-2.554.12-.742.005-1.326-.343-1.735-.382-.448-1.059-.686-1.958-.686Zm.31 2.517c-.147.964-.884.964-1.596.964h-.406l.285-1.8a.223.223 0 0 1 .221-.19h.186c.485 0 .943 0 1.18.277.14.165.184.41.13.75Zm7.723-.03h-1.286c-.111 0-.205.08-.221.188l-.057.36-.09-.13c-.28-.405-.9-.54-1.52-.54-1.422 0-2.637 1.077-2.873 2.588-.123.754.051 1.474.479 1.977.393.462.953.654 1.62.654 1.147 0 1.782-.736 1.782-.736l-.057.357a.224.224 0 0 0 .221.26h1.16c.183 0 .339-.134.368-.316l.696-4.404a.224.224 0 0 0-.222-.259Zm-1.794 2.504a1.434 1.434 0 0 1-1.452 1.228c-.373 0-.673-.12-.864-.347-.19-.225-.262-.546-.202-.904a1.44 1.44 0 0 1 1.442-1.238c.365 0 .662.121.858.35.197.232.275.555.218.91Z" clip-rule="evenodd"/></g><defs><filter id="a" width="64.991" height="48.407" x=".04" y=".294" color-interpolation-filters="sRGB" filterUnits="userSpaceOnUse"><feFlood flood-opacity="0" result="BackgroundImageFix"/><feColorMatrix in="SourceAlpha" result="hardAlpha" values="0 0 0 0 0 0 0 0 0 0 0 0 0 0 0 0 0 0 127 0"/><feOffset dy=".448"/><feGaussianBlur stdDeviation="2.241"/><feColorMatrix values="0 0 0 0 0.717647 0 0 0 0 0.717647 0 0 0 0 0.717647 0 0 0 0.08 0"/><feBlend in2="BackgroundImageFix" result="effect1_dropShadow_20_324"/><feColorMatrix in="SourceAlpha" result="hardAlpha" values="0 0 0 0 0 0 0 0 0 0 0 0 0 0 0 0 0 0 127 0"/><feOffset dy="4.482"/><feGaussianBlur stdDeviation="4.482"/><feColorMatrix values="0 0 0 0 0.717647 0 0 0 0 0.717647 0 0 0 0 0.717647 0 0 0 0.08 0"/><feBlend in2="effect1_dropShadow_20_324" result="effect2_dropShadow_20_324"/><feBlend in="SourceGraphic" in2="effect2_dropShadow_20_324" result="shape"/></filter></defs></svg>