<svg xmlns="http://www.w3.org/2000/svg" width="66" height="49" fill="none"><g filter="url(#a)"><rect width="46.614" height="30.03" x="10" y="5" fill="#fff" rx="5.379"/><rect width="46.838" height="30.255" x="9.888" y="4.888" stroke="#D6DCE5" stroke-width=".224" rx="5.491"/><path fill="#1434CB" d="m33.022 15.121-2.174 10.164h-2.63l2.175-10.164h2.63Zm11.062 6.563 1.384-3.817.796 3.817h-2.18Zm2.933 3.6h2.432l-2.122-10.163h-2.245c-.504 0-.93.293-1.12.746l-3.944 9.418h2.761l.548-1.518h3.374l.316 1.518Zm-6.862-3.318c.012-2.682-3.71-2.83-3.684-4.028.008-.365.356-.753 1.116-.852.377-.05 1.414-.087 2.592.455l.462-2.155a7.067 7.067 0 0 0-2.46-.45c-2.599 0-4.428 1.38-4.443 3.359-.017 1.463 1.306 2.28 2.302 2.766 1.024.498 1.368.817 1.364 1.263-.007.682-.817.982-1.573.994-1.322.021-2.09-.356-2.701-.641l-.477 2.227c.615.282 1.748.527 2.925.54 2.761 0 4.568-1.365 4.577-3.478Zm-10.89-6.845-4.26 10.164h-2.78l-2.095-8.112c-.128-.5-.238-.682-.625-.893-.632-.342-1.676-.664-2.594-.864l.063-.295h4.473c.57 0 1.084.38 1.213 1.036l1.107 5.882 2.736-6.918h2.762Z"/></g><defs><filter id="a" width="64.991" height="48.407" x=".812" y=".294" color-interpolation-filters="sRGB" filterUnits="userSpaceOnUse"><feFlood flood-opacity="0" result="BackgroundImageFix"/><feColorMatrix in="SourceAlpha" result="hardAlpha" values="0 0 0 0 0 0 0 0 0 0 0 0 0 0 0 0 0 0 127 0"/><feOffset dy=".448"/><feGaussianBlur stdDeviation="2.241"/><feColorMatrix values="0 0 0 0 0.717647 0 0 0 0 0.717647 0 0 0 0 0.717647 0 0 0 0.08 0"/><feBlend in2="BackgroundImageFix" result="effect1_dropShadow_20_320"/><feColorMatrix in="SourceAlpha" result="hardAlpha" values="0 0 0 0 0 0 0 0 0 0 0 0 0 0 0 0 0 0 127 0"/><feOffset dy="4.482"/><feGaussianBlur stdDeviation="4.482"/><feColorMatrix values="0 0 0 0 0.717647 0 0 0 0 0.717647 0 0 0 0 0.717647 0 0 0 0.08 0"/><feBlend in2="effect1_dropShadow_20_320" result="effect2_dropShadow_20_320"/><feBlend in="SourceGraphic" in2="effect2_dropShadow_20_320" result="shape"/></filter></defs></svg>